REM DIRINDEX 1\2,1\3,1\4,1\5
REM DIRNAME cjc044,folder01,folder02,folder03,folder04
TITLE ""
FILE "1800_044.mp3" MP3
  TRACK 01 AUDIO
    TITLE "2:cjc044_0981"
    INDEX 01 00:00:00
  TRACK 02 AUDIO
    TITLE "0:"
    INDEX 01 00:01:01
  TRACK 03 AUDIO
    TITLE "3:cjc044_0982"
    INDEX 01 00:01:62
  TRACK 04 AUDIO
    TITLE "0:"
    INDEX 01 00:03:02
  TRACK 05 AUDIO
    TITLE "4:cjc044_0983"
    INDEX 01 00:03:59
  TRACK 06 AUDIO
    TITLE "0:"
    INDEX 01 00:04:70
  TRACK 07 AUDIO
    TITLE "5:cjc044_0984"
    INDEX 01 00:05:50
  TRACK 08 AUDIO
    TITLE "0:"
    INDEX 01 00:08:05
  TRACK 09 AUDIO
    TITLE "2:cjc044_0985"
    INDEX 01 00:09:67
  TRACK 10 AUDIO
    TITLE "0:"
    INDEX 01 00:10:72
  TRACK 11 AUDIO
    TITLE "3:cjc044_0986"
    INDEX 01 00:11:56
  TRACK 12 AUDIO
    TITLE "0:"
    INDEX 01 00:13:02
  TRACK 13 AUDIO
    TITLE "4:cjc044_0987"
    INDEX 01 00:13:57
  TRACK 14 AUDIO
    TITLE "0:"
    INDEX 01 00:14:64
  TRACK 15 AUDIO
    TITLE "5:cjc044_0988"
    INDEX 01 00:15:40
  TRACK 16 AUDIO
    TITLE "0:"
    INDEX 01 00:18:11
  TRACK 17 AUDIO
    TITLE "2:cjc044_0989"
    INDEX 01 00:19:65
  TRACK 18 AUDIO
    TITLE "0:"
    INDEX 01 00:21:04
  TRACK 19 AUDIO
    TITLE "3:cjc044_0990"
    INDEX 01 00:21:62
  TRACK 20 AUDIO
    TITLE "0:"
    INDEX 01 00:22:56
  TRACK 21 AUDIO
    TITLE "4:cjc044_0991"
    INDEX 01 00:23:42
  TRACK 22 AUDIO
    TITLE "0:"
    INDEX 01 00:24:59
  TRACK 23 AUDIO
    TITLE "5:cjc044_0992"
    INDEX 01 00:25:31
  TRACK 24 AUDIO
    TITLE "0:"
    INDEX 01 00:28:60
  TRACK 25 AUDIO
    TITLE "2:cjc044_0993"
    INDEX 01 00:30:50
  TRACK 26 AUDIO
    TITLE "0:"
    INDEX 01 00:31:55
  TRACK 27 AUDIO
    TITLE "3:cjc044_0994"
    INDEX 01 00:32:31
  TRACK 28 AUDIO
    TITLE "0:"
    INDEX 01 00:33:40
  TRACK 29 AUDIO
    TITLE "4:cjc044_0995"
    INDEX 01 00:34:28
  TRACK 30 AUDIO
    TITLE "0:"
    INDEX 01 00:35:35
  TRACK 31 AUDIO
    TITLE "5:cjc044_0996"
    INDEX 01 00:36:13
  TRACK 32 AUDIO
    TITLE "0:"
    INDEX 01 00:39:11
  TRACK 33 AUDIO
    TITLE "2:cjc044_0997"
    INDEX 01 00:40:73
  TRACK 34 AUDIO
    TITLE "0:"
    INDEX 01 00:42:10
  TRACK 35 AUDIO
    TITLE "3:cjc044_0998"
    INDEX 01 00:42:72
  TRACK 36 AUDIO
    TITLE "0:"
    INDEX 01 00:44:67
  TRACK 37 AUDIO
    TITLE "4:cjc044_0999"
    INDEX 01 00:45:57
  TRACK 38 AUDIO
    TITLE "0:"
    INDEX 01 00:46:70
  TRACK 39 AUDIO
    TITLE "5:cjc044_1000"
    INDEX 01 00:47:58
  TRACK 40 AUDIO
    TITLE "0:"
    INDEX 01 00:51:34
  TRACK 41 AUDIO
    TITLE "2:cjc044_1001"
    INDEX 01 00:53:23
  TRACK 42 AUDIO
    TITLE "0:"
    INDEX 01 00:54:32
  TRACK 43 AUDIO
    TITLE "3:cjc044_1002"
    INDEX 01 00:55:16
  TRACK 44 AUDIO
    TITLE "0:"
    INDEX 01 00:56:20
  TRACK 45 AUDIO
    TITLE "4:cjc044_1003"
    INDEX 01 00:57:03
  TRACK 46 AUDIO
    TITLE "0:"
    INDEX 01 00:58:13
  TRACK 47 AUDIO
    TITLE "5:cjc044_1004"
    INDEX 01 00:58:60
  TRACK 48 AUDIO
    TITLE "0:"
    INDEX 01 01:02:20
  TRACK 49 AUDIO
    TITLE "2:cjc044_1005"
    INDEX 01 01:04:07
  TRACK 50 AUDIO
    TITLE "0:"
    INDEX 01 01:05:17
  TRACK 51 AUDIO
    TITLE "3:cjc044_1006"
    INDEX 01 01:06:04
  TRACK 52 AUDIO
    TITLE "0:"
    INDEX 01 01:07:10
  TRACK 53 AUDIO
    TITLE "4:cjc044_1007"
    INDEX 01 01:07:68
  TRACK 54 AUDIO
    TITLE "0:"
    INDEX 01 01:09:01
  TRACK 55 AUDIO
    TITLE "5:cjc044_1008"
    INDEX 01 01:09:52
  TRACK 56 AUDIO
    TITLE "0:"
    INDEX 01 01:13:44
  TRACK 57 AUDIO
    TITLE "2:cjc044_1009"
    INDEX 01 01:15:37
  TRACK 58 AUDIO
    TITLE "0:"
    INDEX 01 01:16:50
  TRACK 59 AUDIO
    TITLE "3:cjc044_1010"
    INDEX 01 01:17:30
  TRACK 60 AUDIO
    TITLE "0:"
    INDEX 01 01:18:23
  TRACK 61 AUDIO
    TITLE "4:cjc044_1011"
    INDEX 01 01:19:11
  TRACK 62 AUDIO
    TITLE "0:"
    INDEX 01 01:20:22
  TRACK 63 AUDIO
    TITLE "5:cjc044_1012"
    INDEX 01 01:20:69
  TRACK 64 AUDIO
    TITLE "0:"
    INDEX 01 01:23:63
